<svg xmlns="http://www.w3.org/2000/svg" viewBox="0 0 900 1100" role="img" aria-label="Cute princess baby photo placeholder">
  <defs>
    <linearGradient id="bg" x1="0" y1="0" x2="1" y2="1">
      <stop offset="0" stop-color="#fff6df"/>
      <stop offset="0.45" stop-color="#ffd4e7"/>
      <stop offset="1" stop-color="#c9efff"/>
    </linearGradient>
    <radialGradient id="glow" cx="50%" cy="28%" r="55%">
      <stop offset="0" stop-color="#ffffff" stop-opacity="0.85"/>
      <stop offset="1" stop-color="#ffffff" stop-opacity="0"/>
    </radialGradient>
  </defs>
  <rect width="900" height="1100" fill="url(#bg)"/>
  <rect width="900" height="1100" fill="url(#glow)"/>
  <g fill="#fff" opacity="0.72">
    <circle cx="126" cy="165" r="34"/>
    <circle cx="174" cy="164" r="46"/>
    <circle cx="226" cy="168" r="31"/>
    <rect x="112" y="164" width="132" height="38" rx="19"/>
    <circle cx="660" cy="224" r="37"/>
    <circle cx="714" cy="222" r="52"/>
    <circle cx="774" cy="229" r="35"/>
    <rect x="642" y="225" width="154" height="43" rx="21"/>
  </g>
  <g transform="translate(450 480)">
    <path d="M-170-242 0-340 170-242 132-104h-264z" fill="#f9b3d0"/>
    <circle cx="0" cy="-150" r="150" fill="#ffdfc8"/>
    <path d="M-148-158c30-104 115-144 195-119 70 22 105 82 105 147-62-63-148-48-209-11-36 22-67 18-91-17z" fill="#6b3c62"/>
    <circle cx="-58" cy="-139" r="13" fill="#56304d"/>
    <circle cx="58" cy="-139" r="13" fill="#56304d"/>
    <path d="M-35-72c23 27 51 27 74 0" fill="none" stroke="#d56b8f" stroke-width="13" stroke-linecap="round"/>
    <path d="M-140 252c13-160 83-250 140-250s127 90 140 250z" fill="#f6a8cf"/>
    <path d="M-115 252c10-100 58-168 115-168s105 68 115 168z" fill="#fff6df" opacity="0.8"/>
    <path d="M-86-322-40-250 0-338 40-250 86-322 76-222h-152z" fill="#ffd166"/>
    <circle cx="-86" cy="-322" r="15" fill="#fff6df"/>
    <circle cx="0" cy="-338" r="16" fill="#fff6df"/>
    <circle cx="86" cy="-322" r="15" fill="#fff6df"/>
  </g>
  <g fill="#ffffff" opacity="0.86">
    <path d="M164 626c-24-40-63-40-82-13-27 39 15 82 82 119 67-37 109-80 82-119-19-27-58-27-82 13z"/>
    <path d="M730 568c-18-29-47-29-61-9-20 29 11 61 61 88 50-27 81-59 61-88-14-20-43-20-61 9z"/>
    <circle cx="168" cy="836" r="12"/>
    <circle cx="725" cy="805" r="9"/>
    <circle cx="773" cy="386" r="11"/>
    <circle cx="99" cy="395" r="8"/>
  </g>
  <text x="450" y="998" text-anchor="middle" fill="#9b4f85" font-family="Verdana, sans-serif" font-size="44" font-weight="700">Add Pihu's Photo</text>
</svg>
